<svg width="486.923" height="106.746" viewBox="0 0 486.923 106.746" xmlns="http://www.w3.org/2000/svg"><g id="svgGroup" stroke-linecap="round" fill-rule="evenodd" font-size="9pt" stroke="#000" stroke-width="0.0mm" fill="#ffffff" style="stroke:#000;stroke-width:0.0mm;fill:#ffffff"><path d="M 99.401 17.144 L 113.961 95.124 A 8.18 8.18 0 0 0 117.071 100.202 A 10.385 10.385 0 0 0 117.111 100.234 A 19.111 19.111 0 0 1 118.056 101.021 Q 119.398 102.221 119.645 103.036 A 1.201 1.201 0 0 1 119.701 103.384 L 119.701 103.664 Q 119.701 105.238 117.12 105.337 A 9.351 9.351 0 0 1 116.761 105.344 L 99.541 105.344 Q 96.741 105.344 96.741 103.664 L 96.741 103.384 A 1.574 1.574 0 0 1 96.972 102.587 Q 97.31 102.006 98.141 101.424 Q 99.541 100.444 100.661 98.974 A 3.955 3.955 0 0 0 101.425 97.099 Q 101.523 96.407 101.431 95.601 A 7.991 7.991 0 0 0 101.361 95.124 L 89.041 25.264 L 60.901 102.264 A 7.186 7.186 0 0 1 60.201 103.55 Q 59.046 105.204 57.261 105.204 Q 54.741 105.204 53.481 102.404 L 25.061 23.584 L 13.021 95.124 A 6.87 6.87 0 0 0 12.949 95.82 Q 12.878 97.205 13.441 98.274 A 5.428 5.428 0 0 0 14.162 99.335 A 4.202 4.202 0 0 0 15.261 100.234 Q 16.381 100.864 17.361 101.704 A 4.103 4.103 0 0 1 17.829 102.17 Q 18.341 102.777 18.341 103.384 L 18.341 103.664 A 1.393 1.393 0 0 1 17.51 104.996 Q 16.815 105.344 15.541 105.344 L 2.801 105.344 Q 0.001 105.344 0.001 103.664 L 0.001 103.384 Q 0.001 102.37 2.065 100.554 A 22.328 22.328 0 0 1 2.521 100.164 A 9.432 9.432 0 0 0 4.502 97.932 A 8.096 8.096 0 0 0 5.601 95.124 L 19.181 16.024 Q 19.505 13.861 18.076 12.158 A 7.137 7.137 0 0 0 17.081 11.194 Q 14.878 9.419 14.601 8.34 A 1.191 1.191 0 0 1 14.561 8.044 L 14.561 7.764 Q 14.561 6.166 16.394 5.971 A 5.169 5.169 0 0 1 16.941 5.944 L 26.181 5.944 Q 30.239 5.944 31.552 9.341 A 7.239 7.239 0 0 1 31.641 9.584 L 58.941 88.684 L 87.081 9.444 A 5.908 5.908 0 0 1 88.107 7.607 Q 89.228 6.282 91.109 6.013 A 7.126 7.126 0 0 1 92.121 5.944 L 102.061 5.944 A 4.219 4.219 0 0 1 102.814 6.005 Q 104.112 6.242 104.159 7.395 A 2.163 2.163 0 0 1 104.161 7.484 L 104.161 7.904 Q 104.161 9.019 102.703 10.065 A 7.055 7.055 0 0 1 102.691 10.074 A 9.926 9.926 0 0 0 100.702 11.979 A 11.974 11.974 0 0 0 100.101 12.804 Q 99.095 14.312 99.331 16.61 A 9.898 9.898 0 0 0 99.401 17.144 Z M 233.941 63.204 L 260.401 97.364 A 6.948 6.948 0 0 0 261.266 98.248 Q 262.428 99.261 264.461 100.374 A 14.21 14.21 0 0 1 265.534 101.019 Q 267.272 102.182 267.392 103.229 A 1.358 1.358 0 0 1 267.401 103.384 L 267.401 103.664 Q 267.401 105.179 265.692 105.328 A 4.527 4.527 0 0 1 265.301 105.344 L 246.681 105.344 A 3.853 3.853 0 0 1 245.914 105.274 Q 244.732 105.033 244.598 103.954 A 2.353 2.353 0 0 1 244.581 103.664 L 244.581 103.384 A 1.371 1.371 0 0 1 244.742 102.783 Q 245.152 101.951 246.611 100.794 Q 248.504 99.292 247.292 97.608 A 3.955 3.955 0 0 0 247.101 97.364 L 225.821 70.624 L 215.181 80.424 L 215.181 95.544 A 4.871 4.871 0 0 0 216.523 98.895 A 7.968 7.968 0 0 0 217.911 100.094 A 18.516 18.516 0 0 1 218.907 100.83 Q 220.641 102.211 220.641 103.104 L 220.641 103.524 A 1.515 1.515 0 0 1 219.762 104.97 Q 219.033 105.344 217.701 105.344 L 200.621 105.344 A 6.449 6.449 0 0 1 199.669 105.28 Q 198.466 105.099 198.046 104.409 A 1.671 1.671 0 0 1 197.821 103.524 L 197.821 103.104 A 1.474 1.474 0 0 1 198.009 102.434 Q 198.51 101.467 200.341 100.094 A 7.419 7.419 0 0 0 201.723 98.77 A 5.073 5.073 0 0 0 202.861 95.544 L 202.861 16.864 A 6.676 6.676 0 0 0 202.575 14.869 A 5.504 5.504 0 0 0 201.461 12.874 Q 200.209 11.434 199.012 10.497 A 12.215 12.215 0 0 0 198.731 10.284 A 6.267 6.267 0 0 1 198.181 9.832 Q 197.64 9.329 197.474 8.865 A 1.189 1.189 0 0 1 197.401 8.464 L 197.401 8.184 Q 197.401 7.237 198.802 6.29 A 8.764 8.764 0 0 1 199.361 5.944 L 210.701 0.624 A 8.29 8.29 0 0 1 211.491 0.35 Q 213.035 -0.093 213.991 0.414 Q 215.181 1.044 215.181 2.584 L 215.181 72.864 L 243.461 47.944 Q 244.862 46.161 244.409 45.247 A 1.041 1.041 0 0 0 244.301 45.074 A 9.81 9.81 0 0 0 243.835 44.518 Q 243.309 43.93 242.508 43.173 A 41.959 41.959 0 0 0 241.991 42.694 A 10.366 10.366 0 0 1 241.364 42.074 Q 240.381 41.009 240.381 40.244 L 240.381 39.824 A 1.765 1.765 0 0 1 240.539 39.05 Q 240.976 38.144 242.621 38.144 L 258.441 38.144 A 3.66 3.66 0 0 1 259.156 38.207 Q 260.279 38.432 260.389 39.453 A 2.157 2.157 0 0 1 260.401 39.684 L 260.401 40.104 A 1.978 1.978 0 0 1 260.098 41.13 Q 259.908 41.448 259.598 41.76 A 5.452 5.452 0 0 1 259.001 42.274 A 23.373 23.373 0 0 1 258.003 42.978 Q 256.943 43.689 255.444 44.571 A 85.532 85.532 0 0 1 254.941 44.864 A 42.98 42.98 0 0 0 253.084 45.999 Q 251.651 46.929 250.601 47.804 L 233.941 63.204 Z M 447.861 38.984 L 447.861 93.304 Q 447.861 96.804 449.121 98.624 A 7.489 7.489 0 0 0 449.836 99.515 Q 450.772 100.502 451.781 100.654 Q 453.181 100.864 454.441 101.424 A 2.54 2.54 0 0 1 455.078 101.818 Q 455.691 102.349 455.701 103.216 A 2.498 2.498 0 0 1 455.701 103.244 A 1.971 1.971 0 0 1 454.629 104.947 Q 452.65 106.184 447.021 106.184 Q 436.381 106.184 436.801 95.824 L 436.521 94.984 A 21.366 21.366 0 0 1 421.161 106.181 A 32.45 32.45 0 0 1 414.961 106.744 A 26.884 26.884 0 0 1 406.18 105.369 A 22.671 22.671 0 0 1 396.131 98.414 Q 390.257 91.493 389.263 79.789 A 58.722 58.722 0 0 1 389.061 74.824 L 389.061 50.044 A 6.297 6.297 0 0 0 386.97 45.3 A 8.735 8.735 0 0 0 386.471 44.864 Q 384.469 43.241 384.015 42.37 A 0.996 0.996 0 0 1 383.881 41.924 L 383.881 41.504 A 1.965 1.965 0 0 1 384.139 40.481 Q 384.573 39.751 385.735 39.459 A 5.157 5.157 0 0 1 385.981 39.404 L 397.741 37.304 A 10.959 10.959 0 0 1 398.346 37.208 Q 401.521 36.802 401.521 38.984 L 401.381 75.804 Q 401.381 83.731 403.19 89.316 A 22.792 22.792 0 0 0 405.651 94.634 A 14.761 14.761 0 0 0 409.823 99.001 Q 413.225 101.284 417.901 101.284 A 15.967 15.967 0 0 0 429.758 96.287 A 20.406 20.406 0 0 0 430.571 95.404 A 20.295 20.295 0 0 0 435.063 86.183 A 29.348 29.348 0 0 0 435.681 80.004 L 435.681 50.044 A 5.811 5.811 0 0 0 434.015 45.963 A 8.751 8.751 0 0 0 432.951 45.004 A 23.961 23.961 0 0 1 432.023 44.256 Q 430.656 43.091 430.326 42.351 A 1.062 1.062 0 0 1 430.221 41.924 L 430.221 41.504 A 1.965 1.965 0 0 1 430.479 40.481 Q 430.913 39.751 432.075 39.459 A 5.157 5.157 0 0 1 432.321 39.404 L 444.221 37.304 A 10.191 10.191 0 0 1 444.803 37.208 Q 447.861 36.802 447.861 38.984 Z M 321.581 96.104 L 321.721 103.244 A 3.03 3.03 0 0 1 321.599 104.144 Q 321.291 105.133 320.207 105.392 A 3.737 3.737 0 0 1 319.341 105.484 L 307.161 105.344 A 4.219 4.219 0 0 1 306.408 105.283 Q 305.11 105.046 305.063 103.892 A 2.163 2.163 0 0 1 305.061 103.804 L 305.061 103.384 A 1.243 1.243 0 0 1 305.218 102.834 Q 305.611 102.06 306.987 100.86 A 24.559 24.559 0 0 1 307.651 100.304 A 8.138 8.138 0 0 0 309.126 98.777 A 5.615 5.615 0 0 0 310.241 95.404 L 310.241 17.004 A 7.385 7.385 0 0 0 310.044 15.252 A 5.198 5.198 0 0 0 308.841 12.944 Q 307.487 11.455 306.134 10.555 A 10.662 10.662 0 0 0 306.041 10.494 A 5.274 5.274 0 0 1 305.445 10.049 Q 304.788 9.474 304.668 8.873 A 1.375 1.375 0 0 1 304.641 8.604 L 304.641 8.184 Q 304.641 6.924 307.021 5.944 L 318.081 0.624 A 7.687 7.687 0 0 1 318.83 0.295 Q 320.052 -0.161 320.921 0.088 A 2.045 2.045 0 0 1 321.231 0.204 A 1.919 1.919 0 0 1 322.259 1.412 Q 322.375 1.771 322.408 2.219 A 4.997 4.997 0 0 1 322.421 2.584 L 322.421 45.844 A 23.706 23.706 0 0 1 338.511 37.025 A 34.646 34.646 0 0 1 343.001 36.744 A 30.971 30.971 0 0 1 365.455 45.901 A 37.725 37.725 0 0 1 365.751 46.194 A 31.821 31.821 0 0 1 374.869 65.293 A 43.73 43.73 0 0 1 375.201 70.764 A 41.971 41.971 0 0 1 373.355 83.466 A 34.75 34.75 0 0 1 365.891 96.454 Q 356.581 106.744 343.141 106.744 Q 329.281 106.744 321.581 96.104 Z M 181.861 66.284 L 184.661 94.144 A 12.886 12.886 0 0 0 184.95 95.93 Q 185.174 96.863 185.535 97.611 A 5.906 5.906 0 0 0 186.201 98.694 A 7.588 7.588 0 0 0 187.042 99.613 Q 187.92 100.418 188.861 100.654 A 13.505 13.505 0 0 1 190.347 101.114 A 10.913 10.913 0 0 1 191.381 101.564 A 2.421 2.421 0 0 1 191.959 101.957 A 1.688 1.688 0 0 1 192.501 103.244 A 1.942 1.942 0 0 1 191.445 104.916 Q 189.772 105.966 185.449 106.146 A 45.874 45.874 0 0 1 183.541 106.184 A 21.421 21.421 0 0 1 180.916 106.034 Q 178.056 105.68 176.377 104.486 A 6.04 6.04 0 0 1 176.121 104.294 A 5.678 5.678 0 0 1 174.637 102.424 Q 173.753 100.719 173.425 98.001 A 24.493 24.493 0 0 1 173.321 96.944 Q 168.346 106.108 155.045 106.703 A 42.229 42.229 0 0 1 153.161 106.744 Q 143.402 106.744 136.825 102.887 A 22.989 22.989 0 0 1 134.261 101.144 A 18.18 18.18 0 0 1 127.213 87.8 A 25.748 25.748 0 0 1 127.121 85.604 A 26.024 26.024 0 0 1 127.118 85.232 Q 127.118 75.7 134.191 70.344 A 25.985 25.985 0 0 1 144.171 65.793 Q 147.866 64.941 152.165 64.887 A 46.453 46.453 0 0 1 152.741 64.884 A 35.901 35.901 0 0 1 159.459 65.472 Q 163.279 66.201 166.265 67.831 A 18.207 18.207 0 0 1 169.961 70.484 L 169.681 66.704 Q 168.537 55.005 165.198 48.735 A 20.768 20.768 0 0 0 164.501 47.524 A 12.682 12.682 0 0 0 155.358 41.445 A 18.21 18.21 0 0 0 152.461 41.224 A 15.677 15.677 0 0 0 148.757 41.64 A 11.451 11.451 0 0 0 144.341 43.744 A 17.519 17.519 0 0 0 142.135 45.777 Q 140.656 47.412 139.931 49.204 Q 138.741 52.144 137.061 54.664 Q 135.381 57.184 133.141 57.184 A 7.325 7.325 0 0 1 131.465 57.003 A 4.911 4.911 0 0 1 129.151 55.784 Q 127.681 54.384 127.681 52.004 A 10.175 10.175 0 0 1 129.754 45.928 Q 130.88 44.373 132.62 42.924 A 24.961 24.961 0 0 1 134.611 41.434 Q 140.922 37.163 150.541 36.781 A 48.431 48.431 0 0 1 152.461 36.744 A 33.915 33.915 0 0 1 161.297 37.836 A 24.938 24.938 0 0 1 172.831 44.514 Q 179.939 51.752 181.64 64.397 A 55.755 55.755 0 0 1 181.861 66.284 Z M 484.121 105.344 L 466.901 105.344 A 5.754 5.754 0 0 1 465.963 105.274 Q 464.302 104.998 464.243 103.626 A 2.387 2.387 0 0 1 464.241 103.524 L 464.241 103.104 Q 464.241 102.063 466.358 100.356 A 19.862 19.862 0 0 1 466.691 100.094 A 7.239 7.239 0 0 0 468.086 98.703 A 5.155 5.155 0 0 0 469.141 95.544 L 469.141 16.864 A 7.871 7.871 0 0 0 468.929 14.993 A 5.864 5.864 0 0 0 467.951 12.874 A 15.974 15.974 0 0 0 466.896 11.586 Q 466.296 10.929 465.678 10.425 A 9.644 9.644 0 0 0 465.501 10.284 A 6.018 6.018 0 0 1 464.98 9.832 Q 464.454 9.316 464.303 8.842 A 1.237 1.237 0 0 1 464.241 8.464 L 464.241 8.184 Q 464.241 7.237 465.642 6.29 A 8.764 8.764 0 0 1 466.201 5.944 L 477.121 0.624 A 8.502 8.502 0 0 1 477.874 0.36 Q 479.431 -0.098 480.341 0.414 A 2.106 2.106 0 0 1 481.406 1.948 A 3.502 3.502 0 0 1 481.461 2.584 L 481.461 95.544 A 4.871 4.871 0 0 0 482.803 98.895 A 7.968 7.968 0 0 0 484.191 100.094 A 18.516 18.516 0 0 1 485.187 100.83 Q 486.921 102.211 486.921 103.104 L 486.921 103.524 A 1.526 1.526 0 0 1 486.066 104.98 Q 485.429 105.314 484.319 105.341 A 8.16 8.16 0 0 1 484.121 105.344 Z M 292.041 105.344 L 274.821 105.344 A 5.754 5.754 0 0 1 273.883 105.274 Q 272.222 104.998 272.163 103.626 A 2.387 2.387 0 0 1 272.161 103.524 L 272.161 102.964 A 1.676 1.676 0 0 1 272.42 102.09 Q 272.586 101.814 272.858 101.545 A 4.757 4.757 0 0 1 273.421 101.074 A 16.258 16.258 0 0 0 274.838 99.917 A 20.833 20.833 0 0 0 275.941 98.834 Q 277.201 97.504 277.201 95.404 L 277.201 53.684 A 7.369 7.369 0 0 0 275.005 48.403 A 9.908 9.908 0 0 0 274.681 48.084 A 36.622 36.622 0 0 1 273.825 47.25 Q 272.214 45.626 272.163 45.041 A 0.427 0.427 0 0 1 272.161 45.004 L 272.161 44.724 Q 272.161 43.772 274.142 42.688 A 12.656 12.656 0 0 1 274.261 42.624 L 285.041 37.304 A 10.588 10.588 0 0 1 285.83 37.041 Q 287.04 36.693 287.823 36.847 A 1.825 1.825 0 0 1 288.331 37.024 A 1.828 1.828 0 0 1 289.208 38.084 Q 289.327 38.426 289.364 38.855 A 4.734 4.734 0 0 1 289.381 39.264 L 289.381 95.404 A 5.614 5.614 0 0 0 289.553 96.826 A 4.427 4.427 0 0 0 290.221 98.274 A 6.075 6.075 0 0 0 291.116 99.292 A 4.797 4.797 0 0 0 292.181 100.024 A 8.882 8.882 0 0 1 293.618 100.915 A 7.768 7.768 0 0 1 294.141 101.354 A 3.33 3.33 0 0 1 294.583 101.84 Q 294.981 102.385 294.981 102.964 L 294.981 103.524 A 1.515 1.515 0 0 1 294.102 104.97 Q 293.373 105.344 292.041 105.344 Z M 322.421 58.864 L 322.421 78.744 L 322.281 80.704 L 322.421 80.704 Q 322.421 89.104 328.231 95.684 A 22.675 22.675 0 0 0 332.399 99.43 A 15.507 15.507 0 0 0 341.321 102.264 A 20.218 20.218 0 0 0 349.124 100.807 Q 353.66 98.929 356.931 94.634 A 26.636 26.636 0 0 0 361.356 85.45 Q 362.741 80.413 362.741 74.124 A 54.438 54.438 0 0 0 361.864 64.06 Q 360.76 58.197 358.269 53.509 A 30.728 30.728 0 0 0 356.371 50.394 A 23.557 23.557 0 0 0 351.295 44.987 A 18.541 18.541 0 0 0 339.781 41.224 A 16.499 16.499 0 0 0 327.845 46.23 A 21.583 21.583 0 0 0 327.601 46.474 A 17.881 17.881 0 0 0 323.522 52.683 A 17.217 17.217 0 0 0 322.421 58.864 Z M 171.501 86.864 L 170.941 80.564 Q 169.821 75.524 165.691 72.444 A 15.328 15.328 0 0 0 158.949 69.635 A 20.614 20.614 0 0 0 155.541 69.364 A 20.515 20.515 0 0 0 150.369 69.983 A 15.099 15.099 0 0 0 143.921 73.424 Q 139.441 77.484 139.441 83.924 A 21.599 21.599 0 0 0 140.371 90.393 A 17.793 17.793 0 0 0 144.131 97.014 A 15.336 15.336 0 0 0 155.324 102.243 A 20.276 20.276 0 0 0 156.241 102.264 A 17.391 17.391 0 0 0 161.581 101.479 A 14.206 14.206 0 0 0 167.441 97.854 A 13.971 13.971 0 0 0 171.518 87.701 Q 171.518 87.677 171.518 87.653 A 18.572 18.572 0 0 0 171.501 86.864 Z M 280.085 24.543 A 12.781 12.781 0 0 0 282.941 24.844 Q 287.001 24.844 289.521 22.464 A 7.714 7.714 0 0 0 291.656 18.991 A 9.907 9.907 0 0 0 292.041 16.164 A 11.251 11.251 0 0 0 291.985 15.032 A 8.214 8.214 0 0 0 289.521 9.794 A 8.323 8.323 0 0 0 285.878 7.718 A 10.981 10.981 0 0 0 282.941 7.344 Q 278.741 7.344 276.151 9.794 A 7.962 7.962 0 0 0 274.018 13.131 A 9.648 9.648 0 0 0 273.561 16.164 Q 273.561 20.084 276.081 22.464 Q 277.705 23.998 280.085 24.543 Z" vector-effect="non-scaling-stroke"/></g></svg>